<svg xmlns="http://www.w3.org/2000/svg" viewBox="0 0 405.82 437.01"><defs><style>.cls-1{fill:#c997ed;}.cls-2{fill:#020202;}.cls-3{fill:#9d7f60;}.cls-4{fill:#5f6064;}.cls-5{fill:#9d8060;}.cls-6{fill:#fdd3a6;}.cls-7{fill:#695238;}.cls-8{fill:#3e3f42;}.cls-9{fill:#e1e1e1;}.cls-10{fill:#0f0c0a;}.cls-11{fill:#f8bd9f;}.cls-12{fill:#2d2e31;}.cls-13{fill:#f7bc9e;}.cls-14{fill:#dba78c;}.cls-15{fill:#8c6b5a;}.cls-16{fill:#997563;}.cls-17{fill:#e4ae93;}.cls-18{fill:#a9816d;}.cls-19{fill:#cd9c84;}.cls-20{fill:#323336;}.cls-21{fill:#e18869;}.cls-22{fill:#b8b9bd;}.cls-23{fill:#1d1613;}.cls-24{fill:#836454;}.cls-25{fill:#e27d6a;}.cls-26{fill:#fefefe;}.cls-27{fill:#564029;}.cls-28{fill:#e69072;}.cls-29{fill:#ba8e78;}.cls-30{fill:#f0ac8e;}</style></defs><g id="Layer_2" data-name="Layer 2"><g id="Layer_1-2" data-name="Layer 1"><path class="cls-1" d="M6,280.65c-.45-2.63-.87-5.26-1.34-7.88-1.14-6.35-2.39-12.68-3.4-19-.49-3.14-.61-6.34-.79-9.52C.23,240.3,0,236.39,0,232.48a224.45,224.45,0,0,1,1.33-23.75,181.16,181.16,0,0,1,4.39-23.95,226.31,226.31,0,0,1,6.8-22.67,213.66,213.66,0,0,1,12-27.39A194.09,194.09,0,0,1,63.07,84.08a214.33,214.33,0,0,1,47.61-33.77A194.46,194.46,0,0,1,164.6,31.92c4.85-.9,9.76-1.54,14.67-2,5.34-.54,10.72-.79,16.09-1.16-.69,1.21-1.39,2.41-2.05,3.63-1,1.83-1.89,3.69-2.92,5.49-1.89,3.33-4,6.52-5.74,9.94C180.07,57,177,66.7,174.08,76.49a3.42,3.42,0,0,1-1.19,1.66,22.83,22.83,0,0,0-9.52,15.61c-1,5.88-.46,11.71.35,17.55a5.38,5.38,0,0,1,0,2c-2.66,10.11-5.38,20.21-8.06,30.31-1.46,5.51-2.89,11-4.34,16.55-.74,2.81-1.5,5.61-2.25,8.42h-.81c-5-.06-7.44,1.45-9.33,6.08-1,2.39-1.63,4.91-2.43,7.37-.53,1.62-.77,3.41-1.62,4.84-4.14,6.92-8.45,13.74-12.67,20.6-1.55,2.51-1.51,2.43-4.47,2-4.15-.56-8.32-1.1-12.5-1.37-4.72-.29-9.09.85-12.38,4.55-1.72,1.94-3.22,4.07-4.87,6.07Q76,233.29,64,247.78a6.22,6.22,0,0,1-1.72,1.43c-3.75,2.13-7.53,4.19-11.3,6.29Z"/><path class="cls-2" d="M6,280.65,51,255.5c3.77-2.1,7.55-4.16,11.3-6.29A6.22,6.22,0,0,0,64,247.78q12-14.47,23.94-29c1.65-2,3.15-4.13,4.87-6.07,3.29-3.7,7.66-4.84,12.38-4.55,4.18.27,8.35.81,12.5,1.37,3,.39,2.92.47,4.47-2,4.22-6.86,8.53-13.68,12.67-20.6.85-1.43,1.09-3.22,1.62-4.84.8-2.46,1.46-5,2.43-7.37,1.89-4.63,4.34-6.14,9.33-6.08h.81c.75-2.81,1.51-5.61,2.25-8.42,1.45-5.51,2.88-11,4.34-16.55,2.68-10.1,5.4-20.2,8.06-30.31a5.38,5.38,0,0,0,0-2c-.81-5.84-1.3-11.67-.35-17.55a22.83,22.83,0,0,1,9.52-15.61,3.42,3.42,0,0,0,1.19-1.66c2.92-9.79,6-19.54,10.57-28.71,1.71-3.42,3.85-6.61,5.74-9.94,1-1.8,1.94-3.66,2.92-5.49.66-1.22,1.36-2.42,2.05-3.63,1.92-2.54,3.76-5.14,5.8-7.58a39,39,0,0,1,9.27-7.85,2.08,2.08,0,0,0,.7-.66l-5,1.42,0,0c1.87-1.66,3.62-3.47,5.63-4.93a40.62,40.62,0,0,1,12.4-6.36A8.27,8.27,0,0,0,226,2.1l-2.27-.39a58,58,0,0,1,16.78-.24c1.4.18,2.87-.21,4.3-.16,2.78.11,5.56.34,8.34.51a1.47,1.47,0,0,0,.86-.14L251.72.35l.12-.35a83,83,0,0,1,8.35,1.74c5.44,1.7,10.8,3.65,16.17,5.53,5.72,2,11.44,4,17.13,6.07,6.7,2.46,13.54,4.64,19.73,8.25,7.09,4.15,14.13,8.43,20.93,13a70.55,70.55,0,0,1,16.37,15.19,70,70,0,0,1,4.41,7.39c2.78,4.71,5.62,9.39,8.33,14.13a46.31,46.31,0,0,1,2.39,5.21c1.29,3,2.45,6.14,3.78,9.16,2.4,5.47,4.16,11.07,3.69,17.14-.34,4.47-.85,8.9-2.56,13.1a1.65,1.65,0,0,0,0,.59c-1.16,1.86-2.33,3.7-3.46,5.57a7,7,0,0,0-.89,1.9c-1.26,5.24-2.43,10.49-3.71,15.72-.89,3.61-2,7.15-2.84,10.76-.73,3.15-1.18,6.36-1.81,9.53-.53,2.69-1.09,5.39-1.76,8.05a7.38,7.38,0,0,1-1.36,2.73c-1.16,1.45-2.48,2.77-3.77,4.12-2.15,2.24-4.39,4.41-6.48,6.72-2.43,2.7-4.77,5.49-7.07,8.3a3.6,3.6,0,0,0-.75,2.13c.07,7.24-.94,14.28-4,20.89s-6.32,13.07-9.5,19.59c-1.81,3.69-3.77,7.3-5.43,11.06-1.1,2.5-1.79,5.19-2.7,7.91-.09-.42-.16-.69-.28-1.22a23.28,23.28,0,0,1-4.58,8.74,51.5,51.5,0,0,0-4.57,6.3c-2.85,5-5.36,10.16-8.2,15.16-3.27,5.76-6.62,11.5-12.72,15.06,1.88,1,3.71,2,5.56,2.9,11.08,5.58,22.13,11.22,33.28,16.67a75,75,0,0,0,18.88,6.75,12,12,0,0,1,7.78,4.78A98.92,98.92,0,0,1,356.73,337c3,5.54,5.64,11.26,8.44,16.9a2.15,2.15,0,0,1-.36,3.2,11,11,0,0,0-1.21,1.62,3.16,3.16,0,0,1-.44-.54c-1.14-2.41-2.25-4.83-3.42-7.23-1.47-3-3-6.05-4.5-9.08l-.32-.49h0a59,59,0,0,0-7.83-12.81,9.08,9.08,0,0,0-5.24-3.14A78.79,78.79,0,0,1,323,318.86c-9.78-4.75-19.5-9.65-29.25-14.49-.3-.15-.62-.27-.94-.4l-.24.29a7.43,7.43,0,0,1,.75.49c2.78,2.34,5.54,4.69,8.34,7a2.4,2.4,0,0,1,1,2.79l-3.4,4.61,5.17,2.75q15.79,8.31,31.6,16.59a3.19,3.19,0,0,1,1.73,2.14q4,15,8.06,29.92c.54,2,1.14,4,1.72,5.93a5.79,5.79,0,0,1-3.1,3.25.48.48,0,0,0,0-.12q-5-18.62-9.95-37.22a2.05,2.05,0,0,0-.93-1.12c-4.15-2.23-8.33-4.39-12.5-6.58q-12.46-6.54-24.91-13.07c-1.49-.79-1.72-1.76-.78-3.14s2.1-3,3.23-4.63l-11-9.16-.32-.25h0c-3-2.53-5.94-5.08-8.94-7.58a2.18,2.18,0,0,0-1.33-.31,32.29,32.29,0,0,1-9.74-.94c-1.64-.49-3.32-.86-5-1.29-2.71-1.32-3-1.3-4.4.53a1.29,1.29,0,0,0-.12,1.1,11.69,11.69,0,0,0,1.08,2c7,10.53,14,21,20.83,31.6a421.1,421.1,0,0,1,22.53,39.11,222.87,222.87,0,0,1,11.55,27.54c.79,2.33,1.61,4.66,2.42,7l-3.24,2.22c-1.79-5.07-3.4-10.21-5.41-15.2-2.37-5.88-5-11.65-7.64-17.44-.66-1.46-1.52-2.84-2.29-4.25-1.8-3.65-3.45-7.37-5.44-10.91-3.65-6.5-7.45-12.92-11.28-19.32-2.58-4.31-5.32-8.52-8-12.77a4.37,4.37,0,0,0-.54-.6,2.64,2.64,0,0,0,.29,1.21c1.51,3.6,3.22,7.14,4.48,10.83,3.09,9,3.78,18.44,4.15,27.89,0,.59.12,1.17.18,1.75.09,3.1.19,6.21.26,9.31.09,3.47.2,6.94.21,10.41,0,11.18,0,22.35.06,33.53,0,.52,0,1,.06,1.55l-1,.41c0-7.72.06-15.43,0-23.15-.13-15-.06-30-1.45-44.94a65.31,65.31,0,0,0-5.63-22.28c-4.6-9.69-9.31-19.33-14-29-1-2.11-2.1-4.18-3.18-6.31-1.08,1.11-1.06,1.1-.2,2.84q7.23,14.72,14.44,29.42A67.36,67.36,0,0,1,278,353.49c.53,7.53,1,15.08,1.16,22.63.25,15.47.24,30.94.33,46.42l-.93.25c-.06-12.82-.1-25.63-.2-38.44,0-5.71-.16-11.42-.33-17.12-.07-2.75-.33-5.49-.5-8.24a4.29,4.29,0,0,0,0-.71c-.38-3.4-.63-6.82-1.23-10.18a52,52,0,0,0-2.34-9.61c-2.11-5.55-4.51-11-7.06-16.36-3.35-7.06-6.94-14-10.46-21a29.37,29.37,0,0,0-1.68-2.57c-1,1.26-1.86,2.34-2.7,3.44-1.92,2.52-4.14,4.85-5.23,7.92a11.18,11.18,0,0,1-5.55,2.65,40,40,0,0,1-13.94,0c-10.18-1.67-19.53-5.63-28.55-10.46A232.77,232.77,0,0,1,173.23,286a227.83,227.83,0,0,1-25.81-21.19c-4.18-4.06-8.31-8.2-12.15-12.58-5.05-5.76-9.79-11.79-14.66-17.72-1.26-1.53-2.49-3.09-3.73-4.64-1.53-2.16-3.06-4.32-4.78-6.77l-1,2h-.32a9.37,9.37,0,0,0-1.14-1.21.94.94,0,0,0-.91-.07c-.19.15-.21.62-.15.92s.31.45.49.67q12.5,15.22,25,30.46,13.38,16.37,26.73,32.76C172,302.33,183.15,316,194.06,329.94q20.16,25.72,39.84,51.83a436.22,436.22,0,0,1,28.29,42.68c.64,1.09,1.16,2.24,1.73,3.36l-.92.09a2.87,2.87,0,0,0-.17-.44c-3.81-6.29-7.46-12.67-11.47-18.83-10.25-15.74-21.28-30.93-32.78-45.79q-11-14.2-22.1-28.34-10.35-13.12-20.85-26.13-11.55-14.39-23.2-28.7Q143.59,268.8,134.7,258q-9.61-11.73-19.27-23.41c-.54-.66-1.19-1.24-1.79-1.85l-4.55-6-2.35,2,4.1,6.17a3.39,3.39,0,0,0,.26.65c2.79,4.48,5.61,8.93,8.39,13.41,9.34,15.08,18.79,30.09,28,45.25q13.25,21.81,26.05,43.89c5.64,9.69,11.07,19.52,16.38,29.4,4.88,9.07,9.64,18.22,14.17,27.47,4.08,8.35,7.88,16.85,11.64,25.36,2.24,5.08,4.17,10.29,6.23,15.44l-3.08.32-.32,0h-.34c-1.08-2.79-2.06-5.63-3.27-8.36-4.67-10.46-9.13-21-14.2-31.3-6.21-12.61-12.81-25-19.5-37.39-5.14-9.52-10.61-18.87-16.07-28.22q-9.15-15.68-18.56-31.2c-6-9.94-12.15-19.82-18.29-29.69-8.33-13.4-16.72-26.77-25-40.16a8.18,8.18,0,0,1-.6-1.87c.29-.33.56-.67.86-1l9.33-9.32c1.47-1.46,3-2.89,4.63-4.53-2.43-.35-4.49-.79-6.58-.91-3.13-.19-6.27-.15-9.41-.2a9.64,9.64,0,0,0-6.33,3.51c-1.25,1.49-2.43,3.06-3.67,4.57q-12.8,15.55-25.59,31.13a2.1,2.1,0,0,0-.46,1.35c.22,3.71.51,7.41.78,11.11.14,1.75.29,3.5.42,5.25.71,9.44,1.44,18.88,2.12,28.32a1.3,1.3,0,0,0,1.11,1.39c8.2,2.38,16.39,4.8,24.59,7.2,3.21.94,3.48,2,1.23,4.52-6.76,7.57-13.48,15.17-20.24,22.74a1.15,1.15,0,0,0,0,1.74q8.46,11.32,16.86,22.7c8.41,11.36,16.85,22.71,25.22,34.1q11.46,15.6,22.79,31.29c1.1,1.51,2.11,3.08,3.16,4.63l-5.71-1.93-.26-.17h0a10.51,10.51,0,0,0-.69-1.23q-6.33-8.71-12.7-17.41-10.95-15-21.93-29.94c-5.56-7.56-11.18-15.07-16.77-22.6L70.82,334.65a2.37,2.37,0,0,1,.67-2.5c1.14-1.22,2.23-2.49,3.34-3.74l11.36-12.9,6-6.61c-7.36-2.17-14.52-4.25-21.65-6.38-1.67-.5-3.29-1.16-4.93-1.74-.34-3.74-.72-7.47-1-11.21-.61-7.68-1.18-15.37-1.76-23.05-.29-4.24-.59-8.48-.89-12.88-.61.3-1,.49-1.45.72L19.81,277.05c-4.53,2.52-9.08,5-13.61,7.51a22.7,22.7,0,0,0-.79-2.74C5.13,281.11,5.51,280.9,6,280.65Zm273.57-63.77-.22-.31c-1.12-2-1.12-2-2.6-1.45.06.46.11.93.19,1.4.37,2.15.42,4.44,1.2,6.43a17.23,17.23,0,0,0,6,7.73c1.91,1.39,3.75,2.86,5.66,4.23,3.9,2.78,7.79,5.57,11.76,8.24,2,1.36,4.21.39,4.81-2a20.57,20.57,0,0,0,.36-2.48,9.26,9.26,0,0,0-.47-5.09,5.27,5.27,0,0,0-4.61-4.05,5.51,5.51,0,0,1-3.18-1.91c-1.35-1.5-2.83-2.88-4.25-4.32l-9.54-3.24c-1.61-.94-3.71-1-4.85-2.79h0l-.29-.45Zm56-36c-.14.3-.44.62-.41.9.15,1.43.39,2.85.63,4.49l1.82-2.15c-.72-.9-1.41-1.72-2.05-2.58-.09-.12,0-.42.07-.64l2.11,1a6,6,0,0,0-.89-6.56c-1.74,1.41.25,2.61.16,4l-2.6.28Zm3.93-4c.14,1.47.28,2.94.42,4.39,2.49-1.78,2.36-4.23,1.73-6.81-1-3.39-3.5-5.64-6.15-7.73l-1.15-1,.19-.25,1.86.84a19.06,19.06,0,0,1,6.05,6.72c.1,1.73.2,3.46.31,5.33a81,81,0,0,0,6.08-6.61c3.46-4.66,3.54-3.69-.37-8.34a1.21,1.21,0,0,0-.29-.19l-1.32-1.34c-.39-.39-.76-.81-1.18-1.16-3.49-2.93-7-5.85-10.48-8.79a4,4,0,0,1-.63-1c.3-.25.61-.5.9-.76a9,9,0,0,1,11.78-.88c1,.7,1.87,1.58,2.8,2.38l4.6,5.79c.1-.39.19-.64.24-.91.75-3.63,1.32-7.3,2.27-10.88,2.5-9.36,5-18.71,6.5-28.32.42-2.82-.8-4.8-2.25-6.86a6.68,6.68,0,0,0-.41-1.08c-5.55-9.21-12.74-17.06-20.44-24.47a185.38,185.38,0,0,0-20.1-16.46C313,63,305.66,57.33,297.35,53.13c-4-2-7.87-4.09-12.21-5.14-3.57-.87-7.14-1.75-10.86-1.52L269,46.9a8.5,8.5,0,0,0-1.23-1q-9.39-5.38-18.8-10.75A103.92,103.92,0,0,0,224.37,24.5c-2.72-.72-5.4-1.32-8.17-.38A23.7,23.7,0,0,0,207,27.2l-7.1,5.11-6.2,7.2c-.43.57-.88,1.12-1.27,1.71a92.53,92.53,0,0,0-7.63,14.85c-2.38,6.23-4.63,12.5-6.51,19.16.79-.26,1.31-.46,1.84-.61a21.24,21.24,0,0,1,8.86-.9,18.86,18.86,0,0,1,9.93,4.91c2.74,3.34,5.53,6.65,8.21,10a14.52,14.52,0,0,1,2.79,7.73q-.12,3.17-.22,6.32c-.33-.1-.41-.2-.44-.31-1.77-7.16-5.72-13.11-10.41-18.64-4-4.68-8.71-7.68-15.18-6.3-6.89,1.48-12.29,5.05-15.26,11.66-1.81,4-2.12,8.33-2,12.68.36,9.31,2.44,18.32,4.74,27.3.94,3.66,2.32,7.21,2.4,11.08a30.94,30.94,0,0,0,.81,5.56c1,5,4.31,8.17,8.53,10.53,3,1.65,6,3.13,9,4.69a7.49,7.49,0,0,1,.45,1.87A28.13,28.13,0,0,1,192,166a3.84,3.84,0,0,0-.11.46c-.57,5.14-1.18,10.27-1.68,15.42a24.76,24.76,0,0,0,.45,9.35,1.53,1.53,0,0,0-.06.66c.81,2.36,1.47,4.8,2.5,7.06,1.8,3.95,3.83,7.8,5.79,11.67.75,1.47,1.59,2.9,2.39,4.35a4.58,4.58,0,0,0,.17.56c1.64,3.13,3.27,6.26,5,9.37a8,8,0,0,0,1.12,1.35,19.28,19.28,0,0,0,1.18,1.76c1.56,1.86,3.26,3.61,4.7,5.55a2.28,2.28,0,0,0,2.88.92l1.15-.32c6.33-1.52,12.66-3,19-4.57a10.91,10.91,0,0,0,3.14-1,34.75,34.75,0,0,0,3.74-2.94q5-4.19,10-8.41c.69-.58,1.28-1.26,1.92-1.9a16.56,16.56,0,0,0,1.56-1.07c1.58-1.36,3.14-2.76,4.7-4.14a7.27,7.27,0,0,0,1-.6c3-2.52,6.1-5,9.07-7.62a4.16,4.16,0,0,1,3.54-1.17,33.26,33.26,0,0,0,4.79.17c7.22-.18,14.45-.41,21.67-.63l7.91-1.39c.19.21.56.62.91,1.05,1.7,2.06,3.29,4.26,6.18,4.76a3,3,0,0,1,2.66,2.87c0,3-.06,6.05,0,9.08,0,2.73.2,5.47.31,8.21l.45,5.33c4.54-8.82,9.66-17.33,12.08-27l-4.09,2.29-3.85.41-6.94-2.3.11-.31,4.19.64,2.43,0a8.37,8.37,0,0,0,8.53-6.78,36.27,36.27,0,0,0,.18-11.9c-.58-5.16-1.39-10.3-1.8-15.46-.38-4.9-.37-9.82-.53-14.73.58-.91,1.16-1.82,1.75-2.73a4.46,4.46,0,0,1,.11,1,12.08,12.08,0,0,0-.45,2.45c.27,3.69.65,7.38,1,11.05.05.41.46.77.71,1.16C335.76,170.75,338.25,173.38,339.52,176.83Zm-59.79,37.61a34.49,34.49,0,0,0,4.39,2.92,30.19,30.19,0,0,0,5.87,2,14.84,14.84,0,0,1,8.93,5.69,7.49,7.49,0,0,0,4.94,2.8l.59.11c1.81.26,2.88,1,3.1,3.11.25,2.45.48,2.42,3,2.27h1.84c.42-3,.84-5.81,1.2-8.67a1.69,1.69,0,0,0-.39-1.23q-4-3.81-8.05-7.52a3,3,0,0,0-1.44-.71c-4-.67-8-1.29-11.94-1.91-1.54-.24-3.12-.78-4.61-.59A71.62,71.62,0,0,0,279.73,214.44Zm-66.21,34.87.24.12-.08-.28c-1-2.17-2-4.33-3-6.51-2-4.55-3.91-9.18-6.13-13.63-3.15-6.31-6.64-12.45-9.84-18.74-3.5-6.87-7.45-13.59-8.24-21.51.21-4.18.3-8.38.66-12.56.34-4,.93-7.93,1.46-11.9a1.2,1.2,0,0,0-.81-1.45c-2.22-1.1-4.42-2.22-6.59-3.41-6.43-3.54-10.21-8.86-10.92-16.28a73,73,0,0,0-1.12-7.81c-.58-2.77-1.45-5.48-2.16-8.22-.52-2-1-4-1.52-6.2-.18.46-.29.67-.35.9l-4.77,18.06c-2.76,10.49-5.48,21-8.32,31.47a4.8,4.8,0,0,0,.62,4.3C159.89,187,167,198.43,175,209.25c2.42,3.26,5,6.38,7.56,9.57,1.3,1.56,2.58,3.13,3.9,4.67,6.13,7.22,13.17,13.53,20.22,19.82C209,245.33,211.25,247.31,213.52,249.31Zm-93.57-22a5.57,5.57,0,0,0,.44.92A271.5,271.5,0,0,0,147,259.33c2.52,2.48,5.23,4.79,7.85,7.18,1,.93,2,1.93,3.06,2.79,4.94,4,9.75,8.13,14.89,11.81,6.32,4.52,12.89,8.69,19.41,12.91A116.48,116.48,0,0,0,212,304.28c8.56,3.44,17.33,6.05,26.73,5,2.48-.29,5.28-.27,6-3.59a.83.83,0,0,1,.2-.3l7.37-9.57c1-1.27,2-2.56,3-3.92l-8-3.51.09,0s0-.06,0-.08-.05,0-.07,0,0,0,.11.1l.66,1.53a9.6,9.6,0,0,1-2.63-1.48c-2.44-2-4.84-4-7.25-6s-3.88-4.66-6.52-6.36a19.58,19.58,0,0,1-3.38-3.53A60.78,60.78,0,0,1,219,259.35,7.64,7.64,0,0,0,217.3,257c-5.29-4.48-10.65-8.87-15.94-13.34-1.76-1.5-3.42-3.13-5.05-4.77q-5-5.06-10-10.17c-1.49-1.54-2.94-3.12-4.4-4.68a16.54,16.54,0,0,0-.92-1.38,221.14,221.14,0,0,1-16-21.32c-4.22-6.29-8.29-12.68-12.43-19-1.2-1.93-2.37-3.88-3.59-5.8-.82-1.29-1.82-2.52-.67-4.39a25.18,25.18,0,0,0-2.66.26c-2.13.45-3,2.22-3.61,4-1,2.89-1.78,5.87-2.68,8.8a14.67,14.67,0,0,1-1.19,3.23c-3.24,5.35-6.68,10.6-9.84,16a50.88,50.88,0,0,1-10.31,13.11c-1.16,1-2.27,2.08-3.4,3.12,1.72,2.28,3.22,4.3,4.74,6.3A2.07,2.07,0,0,0,120,227.31ZM292.5,303.87s-.05-.08-.06-.07a.76.76,0,0,0-.16.06s.06.07.08.07A.59.59,0,0,0,292.5,303.87ZM254.3,1.92l-.08,0V2s.06,0,.08,0A.17.17,0,0,0,254.3,1.92ZM211.53,12.58l.09-.07-.08-.07-.08.11Z"/><path class="cls-3" d="M143.45,427.52c-1-1.55-2.06-3.12-3.16-4.63q-11.37-15.66-22.79-31.29c-8.37-11.39-16.81-22.74-25.22-34.1q-8.41-11.37-16.86-22.7a1.15,1.15,0,0,1,0-1.74c6.76-7.57,13.48-15.17,20.24-22.74,2.25-2.52,2-3.58-1.23-4.52-8.2-2.4-16.39-4.82-24.59-7.2a1.3,1.3,0,0,1-1.11-1.39c-.68-9.44-1.41-18.88-2.12-28.32-.13-1.75-.28-3.5-.42-5.25,2.62-2.74,5.25-5.46,7.86-8.21q11.16-11.77,22.31-23.55c1.66-1.76,3.4-3.45,5.1-5.17l1.17,1.2a8.18,8.18,0,0,0,.6,1.87c8.33,13.39,16.72,26.76,25,40.16,6.14,9.87,12.27,19.75,18.29,29.69q9.4,15.54,18.56,31.2c5.46,9.35,10.93,18.7,16.07,28.22,6.69,12.36,13.29,24.78,19.5,37.39,5.07,10.27,9.53,20.84,14.2,31.3,1.21,2.73,2.19,5.57,3.27,8.36-3,.19-6,.37-9,.58a113.89,113.89,0,0,1-22.61-.52c-8.3-1.08-16.55-2.54-24.81-3.89a117.73,117.73,0,0,1-17.12-4.47A11.07,11.07,0,0,0,143.45,427.52Z"/><path class="cls-1" d="M365.17,353.93c-2.8-5.64-5.45-11.36-8.44-16.9a98.92,98.92,0,0,0-6.61-10.38,12,12,0,0,0-7.78-4.78,75,75,0,0,1-18.88-6.75c-11.15-5.45-22.2-11.09-33.28-16.67-1.85-.93-3.68-1.92-5.56-2.9,6.1-3.56,9.45-9.3,12.72-15.06,2.84-5,5.35-10.17,8.2-15.16a51.5,51.5,0,0,1,4.57-6.3,23.28,23.28,0,0,0,4.58-8.74c.12.53.19.8.28,1.22.91-2.72,1.6-5.41,2.7-7.91,1.66-3.76,3.62-7.37,5.43-11.06,3.18-6.52,6.42-13,9.5-19.59s4.1-13.65,4-20.89a3.6,3.6,0,0,1,.75-2.13c2.3-2.81,4.64-5.6,7.07-8.3,2.09-2.31,4.33-4.48,6.48-6.72,1.29-1.35,2.61-2.67,3.77-4.12a7.38,7.38,0,0,0,1.36-2.73c.67-2.66,1.23-5.36,1.76-8.05.63-3.17,1.08-6.38,1.81-9.53.83-3.61,1.95-7.15,2.84-10.76,1.28-5.23,2.45-10.48,3.71-15.72a7,7,0,0,1,.89-1.9c1.13-1.87,2.3-3.71,3.46-5.57,1.58,2.3,3.23,4.55,4.71,6.9a197.3,197.3,0,0,1,11.42,20.63,200.08,200.08,0,0,1,8.52,20.81,189.76,189.76,0,0,1,6.9,25.74c1,5,1.68,10,2.26,15.11s1,10,1.2,15c.24,6.42.4,12.87.17,19.29s-.77,12.65-1.62,18.92c-.73,5.47-2,10.87-3.16,16.28-.9,4.33-1.69,8.7-2.92,12.94A139.93,139.93,0,0,1,392.9,303c-3.19,7.62-6.55,15.18-10.19,22.58a179.39,179.39,0,0,1-16.6,26.87C365.76,352.9,365.48,353.43,365.17,353.93Z"/><path class="cls-4" d="M116.88,229.82c1.24,1.55,2.47,3.11,3.73,4.64,4.87,5.93,9.61,12,14.66,17.72,3.84,4.38,8,8.52,12.15,12.58A227.83,227.83,0,0,0,173.23,286a232.77,232.77,0,0,0,25.64,16.13c9,4.83,18.37,8.79,28.55,10.46a40,40,0,0,0,13.94,0,11.18,11.18,0,0,0,5.55-2.65c.18.31.34.63.53.93,2.33,3.52,4.71,7,7,10.56q5.88,9.27,11.65,18.62c2.92,4.75,5.72,9.58,8.59,14.35.94,1.56,1.94,3.07,2.92,4.6.17,2.75.43,5.49.5,8.24.17,5.7.29,11.41.33,17.12.1,12.81.14,25.62.2,38.44l-12.15,4.14c-2.83-4.73-5.6-9.49-8.5-14.17-7.06-11.37-14.63-22.41-22.54-33.19-4.59-6.24-9.29-12.4-14-18.53-5.16-6.71-10.38-13.38-15.6-20q-9.51-12.11-19.08-24.16-7.36-9.28-14.8-18.52c-4.76-5.9-9.59-11.76-14.39-17.63q-8-9.78-16-19.54c-4.63-5.6-9.3-11.17-13.95-16.75-2.26-2.7-4.51-5.39-6.79-8.06-.21-.25-.44-.94-.92-.22l-1.36-1.65a.15.15,0,0,1,0-.13l.23-.12-.22-.21-.16-.4-.46.12-.13-.17,0-.49-1.71-2.58Z"/><path class="cls-5" d="M62.79,266.52c.58,7.68,1.15,15.37,1.76,23.05.3,3.74.68,7.47,1,11.21-.11,1.1-.25,2.2-.33,3.31-.16,1.93-.31,3.87-.38,5.81a1.27,1.27,0,0,0,.68,1c2.58.63,5.18,1.17,7.77,1.75,4.3.95,8.59,1.92,12.88,2.88l-11.36,12.9c-1.11,1.25-2.2,2.52-3.34,3.74a2.37,2.37,0,0,0-.67,2.5,11.67,11.67,0,0,1-.67,1.26c-.62.92-1.37,1.77-1.9,2.74a1.8,1.8,0,0,0,0,1.57c6,8.31,12,16.57,18,24.86,5,7,10,14,15.07,20.94,2.49,3.45,5,6.88,7.52,10.33q6.4,8.86,12.78,17.75c1.64,2.29,3.19,4.65,4.78,7-2.84-1.25-5.72-2.43-8.51-3.78a247.81,247.81,0,0,1-28.42-16.12,215.93,215.93,0,0,1-28.15-21.89A183.21,183.21,0,0,1,34.6,348.52,199.55,199.55,0,0,1,20,322.84a156.24,156.24,0,0,1-6.89-16.95c-1.08-3.08-2-6.21-3.05-9.32a6.74,6.74,0,0,0,.87-.38l20.57-11.81q10.23-5.88,20.47-11.75C55.54,270.57,59.17,268.56,62.79,266.52Z"/><path class="cls-4" d="M113.64,232.7c.6.61,1.25,1.19,1.79,1.85q9.66,11.69,19.27,23.41,8.88,10.85,17.73,21.71,11.64,14.32,23.2,28.7,10.49,13,20.85,26.13,11.13,14.12,22.1,28.34c11.5,14.86,22.53,30.05,32.78,45.79,4,6.16,7.66,12.54,11.47,18.83a2.87,2.87,0,0,1,.17.44c-2.09.6-4.18,1.27-6.29,1.82a217.58,217.58,0,0,1-26.54,5.21c-2.73.36-5.48.54-8.22.81-2.06-5.15-4-10.36-6.23-15.44-3.76-8.51-7.56-17-11.64-25.36-4.53-9.25-9.29-18.4-14.17-27.47-5.31-9.88-10.74-19.71-16.38-29.4Q160.7,316,147.48,294.18c-9.2-15.16-18.65-30.17-28-45.25-2.78-4.48-5.6-8.93-8.39-13.41a3.39,3.39,0,0,1-.26-.65Z"/><path class="cls-3" d="M287.55,304.7l11,9.16c-1.13,1.62-2.2,3.11-3.23,4.63s-.71,2.35.78,3.14q12.44,6.56,24.91,13.07c4.17,2.19,8.35,4.35,12.5,6.58a2.05,2.05,0,0,1,.93,1.12q5,18.6,9.95,37.22a.48.48,0,0,1,0,.12c-3.81,3.51-7.64,7-11.41,10.56a133.79,133.79,0,0,1-16.09,12.57,4.6,4.6,0,0,1-.75.33c-.81-2.32-1.63-4.65-2.42-7a222.87,222.87,0,0,0-11.55-27.54,421.1,421.1,0,0,0-22.53-39.11c-6.8-10.63-13.88-21.07-20.83-31.6a11.69,11.69,0,0,1-1.08-2,1.29,1.29,0,0,1,.12-1.1c1.35-1.83,1.69-1.85,4.4-.53a3.34,3.34,0,0,0,.68.45q10.52,4.32,21,8.6c1.06.42,2.18.71,3.27,1.07h0Z"/><path class="cls-3" d="M355.24,341.9c1.5,3,3,6,4.5,9.08,1.17,2.4,2.28,4.82,3.42,7.23a3.16,3.16,0,0,0,.44.54c-2,2.56-3.89,5.25-6.07,7.66-3,3.32-6.22,6.43-9.35,9.62a4.33,4.33,0,0,1-.66.46c-.58-2-1.18-3.94-1.72-5.93q-4.05-15-8.06-29.92A3.19,3.19,0,0,0,336,338.5q-15.81-8.26-31.6-16.59l-5.17-2.75,3.4-4.61a5.4,5.4,0,0,1,.9.23c8.3,3.73,16.57,7.52,24.89,11.19a109.26,109.26,0,0,0,10.88,4.3c5.6,1.79,10.38,4.65,14,9.38a21.22,21.22,0,0,0,1.66,1.77h0Z"/><path class="cls-6" d="M62.79,266.52c-3.62,2-7.25,4.05-10.85,6.11q-10.24,5.85-20.47,11.75L10.9,296.19a6.74,6.74,0,0,1-.87.38,6.19,6.19,0,0,1-.67-1.2c-1.07-3.6-2.11-7.21-3.16-10.81,4.53-2.5,9.08-5,13.61-7.51l40.64-22.69c.41-.23.84-.42,1.45-.72C62.2,258,62.5,262.28,62.79,266.52Z"/><path class="cls-7" d="M126.45,421.07c-1.59-2.32-3.14-4.68-4.78-7q-6.36-8.89-12.78-17.75c-2.49-3.45-5-6.88-7.52-10.33-5-7-10-14-15.07-20.94-6-8.29-12-16.55-18-24.86a1.8,1.8,0,0,1,0-1.57c.53-1,1.28-1.82,1.9-2.74a11.67,11.67,0,0,0,.67-1.26L85.4,354.24c5.59,7.53,11.21,15,16.77,22.6q11,14.94,21.93,29.94,6.36,8.69,12.7,17.41a10.51,10.51,0,0,1,.69,1.23Z"/><path class="cls-4" d="M282,421.41c0-.52-.06-1-.06-1.55,0-11.18,0-22.35-.06-33.53,0-3.47-.12-6.94-.21-10.41-.07-3.1-.17-6.21-.26-9.31a5.47,5.47,0,0,1,.44.54l2.48,4.28c.44.89.86,1.78,1.31,2.66,2.65,5.13,5.42,10.2,7.92,15.39,3.43,7.14,6.66,14.37,10,21.57-4.8,2.47-9.57,5-14.41,7.38C286.84,419.56,284.4,420.42,282,421.41Z"/><path class="cls-8" d="M303.56,411.05c-3.32-7.2-6.55-14.43-10-21.57-2.5-5.19-5.27-10.26-7.92-15.39-.45-.88-.87-1.77-1.31-2.66.1-.07.18-.18.29-.2,2.19-.48,4.38-1,6.58-1.41s4.25-.86,6.37-1.29c.77,1.41,1.63,2.79,2.29,4.25,2.6,5.79,5.27,11.56,7.64,17.44,2,5,3.62,10.13,5.41,15.2Z"/><path class="cls-9" d="M117.78,233.57a1.09,1.09,0,0,1,.13.17.21.21,0,0,0,.13.17l.45.57,1.36,1.65L131.24,250q13.35,16.34,26.68,32.67c8.85,10.87,17.72,21.72,26.46,32.68Q199.32,334.09,214,353c7.53,9.72,15,19.48,22.17,29.48s13.76,20,20.44,30.11c3.14,4.75,5.86,9.77,8.78,14.68l-1.51.55c-.57-1.12-1.09-2.27-1.73-3.36a436.22,436.22,0,0,0-28.29-42.68q-19.65-26.11-39.84-51.83C183.15,316,172,302.33,160.82,288.58q-13.31-16.43-26.73-32.76-12.48-15.24-25-30.46c-.18-.22-.45-.42-.49-.67s0-.77.15-.92a.94.94,0,0,1,.91.07,9.37,9.37,0,0,1,1.14,1.21l.26.23h0l.72.73v0l.24.49h0l1.19,1.43h0l4.22,5.22Z"/><path class="cls-10" d="M265.43,427.26c-2.92-4.91-5.64-9.93-8.78-14.68-6.68-10.13-13.38-20.25-20.44-30.11S221.57,362.71,214,353Q199.37,334,184.38,315.37c-8.74-11-17.61-21.81-26.46-32.68S140.14,260.91,131.24,250l-11.39-13.89c.48-.72.71,0,.92.22,2.28,2.67,4.53,5.36,6.79,8.06,4.65,5.58,9.32,11.15,13.95,16.75q8,9.73,16,19.54c4.8,5.87,9.63,11.73,14.39,17.63q7.46,9.23,14.8,18.52,9.57,12.06,19.08,24.16c5.22,6.65,10.44,13.32,15.6,20,4.72,6.13,9.42,12.29,14,18.53,7.91,10.78,15.48,21.82,22.54,33.19,2.9,4.68,5.67,9.44,8.5,14.17Z"/><path class="cls-9" d="M279.53,422.54c-.09-15.48-.08-31-.33-46.42-.12-7.55-.63-15.1-1.16-22.63A67.36,67.36,0,0,0,271,328.42q-7.25-14.7-14.44-29.42c-.86-1.74-.88-1.73.2-2.84,1.08,2.13,2.16,4.2,3.18,6.31,4.68,9.65,9.39,19.29,14,29a65.31,65.31,0,0,1,5.63,22.28c1.39,14.95,1.32,29.95,1.45,44.94.07,7.72,0,15.43,0,23.15Z"/><path class="cls-2" d="M206.09,14.05v.17l-.15-.06.18-.09Z"/><path class="cls-7" d="M137.48,425.42l.26.17Z"/><path class="cls-3" d="M218.55,436.1l.32,0Z"/><path class="cls-11" d="M350.07,151.64c-.93-.8-1.8-1.68-2.8-2.38a9,9,0,0,0-11.78.88c-.29.26-.6.51-.9.76a2.41,2.41,0,0,0-2.47,1.37c-.59.91-1.17,1.82-1.75,2.73-.37.71-1.06,1.42-1.06,2.13,0,7.47.11,14.93.2,22.4,0,.2,0,.4,0,.6.31,4.6.84,9.21.84,13.82a10.1,10.1,0,0,1-6.39,9.92l-2.43,0a33.1,33.1,0,0,1-3.22-2.19c-1.3-1.12-2.73-2.16-3.45-3.94l1.22-.08,1.9.72,0,.18h.12l-.12-.16L315,194.63c.09-2.35.22-4.7.27-7,.11-5.86-4.39-9-9.62-9.58a9.68,9.68,0,0,0-6.68,1.75l-1.69,1.12-3.48,2.21a5.69,5.69,0,0,0-1.38.23q-4.29,1.75-8.57,3.59c-1,.44-2,1-3,1.45a2.6,2.6,0,0,0,1.25.19l10.35-.47a14.93,14.93,0,0,0,1.29,2.87,14.66,14.66,0,0,0,2.3,2.14c.67.88,1.33,1.76,2,2.63l3.53,4.53c-7.22.22-14.45.45-21.67.63a33.26,33.26,0,0,1-4.79-.17,4.16,4.16,0,0,0-3.54,1.17c-3,2.6-6,5.1-9.07,7.62a7.27,7.27,0,0,1-1,.6,2.55,2.55,0,0,0-.25-.75q-6.19-9.1-12.41-18.18c-.2-.35-.37-.71-.59-1q-4.67-6.88-9.34-13.75-3.47-5.08-6.94-10.15c-.31-.51-.61-1-.93-1.53-3.27-5-6.86-9.9-9.08-15.56a32.34,32.34,0,0,1-2.46-10.27v-.49l0-.46c.09-3.82,0-7.65.31-11.46s.79-7.48,1.34-11.21c.41-2.78,1-5.53,1.55-8.29.53-1.53,1.14-3,1.59-4.6a34.44,34.44,0,0,1,14.12-19.23c2-1.4,4.21-2.53,6.32-3.79a5.37,5.37,0,0,0,1.12-.84c.85-1.1,1.61-2.27,2.44-3.37,2-2.63,3.92-5.29,6-7.83,2.33-2.84,4.81-5.57,7.23-8.36.36-.32.72-.62,1.06-1l8.86-8.68c.95-.93,1.87-1.88,2.81-2.83,3.72-.23,7.29.65,10.86,1.52,4.34,1,8.26,3.15,12.21,5.14,8.31,4.2,15.63,9.9,23.13,15.32a185.38,185.38,0,0,1,20.1,16.46c7.7,7.41,14.89,15.26,20.44,24.47a6.68,6.68,0,0,1,.41,1.08,8,8,0,0,0-.52,1.17c-.88,3.23-1.73,6.47-2.59,9.7q-3,11.27-6,22.53C351.58,146.46,350.81,149.05,350.07,151.64Zm-71.92-21.92h0l.24.28c.27.28.55.55.82.84l3.25,3.48,0,0,.26.51,3.09,2.87,8.67,5.86.1.2c1.92,1.32,3.83,2.66,5.76,4a3.15,3.15,0,0,0,.88.3,2.57,2.57,0,0,1,.62.31l6.38,5.39c1.47,1.25,3,2.48,4.57,3.82,2.53-3.79,5-7.35,7.34-11a20.28,20.28,0,0,0,3.39-8.48,28.21,28.21,0,0,0,2.86-2.93c2-2.72,2-4.78.1-7.61-2.3-3.47-5.55-6-8.53-8.87-.15-.14-.45-.13-.68-.18a5.15,5.15,0,0,0-.87-1.08c-1.05-.79-2.15-1.5-3.23-2.24a4.11,4.11,0,0,0-.65-.47c-3.77-1.72-7.53-3.46-11.33-5.12-3.18-1.39-6.39-2.75-10-2.55-3.26.19-6.53.37-9.8.58-1.56.1-3.11.27-4.66.4.13.34.29.41.46.45l5.51,1.13a68.53,68.53,0,0,1,17.7,6.74c1.33.69,2.75,1.17,4.13,1.75.28.32.57.62.84.94s.75.86,1.12,1.28c.65.66,1.3,1.31,1.94,2l.27.27h0a11.27,11.27,0,0,1,.21,1.4,7.54,7.54,0,0,1,0,3c-.84,2-2,3.87-3,5.79-.43.79-.87,1.56-1.31,2.35a32.31,32.31,0,0,0-4.67-3.06c-3.6-1.61-7.3-3-11-4.36-1.85-.69-3.79-1.18-5.68-1.76l-1.18-.44a26.11,26.11,0,0,0-2.62-1.12c-.32-.1-.79.36-1.15.3-1.63-.3-3.25-.71-4.88-1-1.35-.28-2.71-.52-4.07-.78a23.23,23.23,0,0,0,2.73,2.4c1,.75,1.93,1.53,2.92,2.25s2,1.37,3,2h0Zm-1.23,5.54-.11-.1.1.11c.53,1.06,1,2.15,1.6,3.16,2.4,4.07,5.14,7.82,9.83,9.49,1.9.67,3.88,1.12,5.83,1.66l.12-.37c-.25-.16-.5-.34-.77-.48a54.5,54.5,0,0,1-13.12-9.87C279.25,137.65,278.08,136.46,276.92,135.26Z"/><path class="cls-12" d="M182,224c1.46,1.56,2.91,3.14,4.4,4.68q5,5.1,10,10.17c1.63,1.64,3.29,3.27,5.05,4.77,5.29,4.47,10.65,8.86,15.94,13.34a7.64,7.64,0,0,1,1.72,2.36,60.78,60.78,0,0,0,9.26,13.16,19.58,19.58,0,0,0,3.38,3.53c2.64,1.7,4.19,4.41,6.52,6.36s4.81,4.05,7.25,6a9.6,9.6,0,0,0,2.63,1.48l-.66-1.53,7.93,3.48c-1,1.36-2,2.65-3,3.92L245,305.36a.83.83,0,0,0-.2.3c-.73,3.32-3.53,3.3-6,3.59-9.4,1.08-18.17-1.53-26.73-5A116.48,116.48,0,0,1,192.16,294c-6.52-4.22-13.09-8.39-19.41-12.91-5.14-3.68-9.95-7.84-14.89-11.81-1.07-.86-2-1.86-3.06-2.79,2,.53,3.95,1.22,6,1.57a10,10,0,0,0,9.09-2.73c2.56-2.45,3.85-5.55,4.95-8.75,2.83-8.26,4.42-16.83,5.87-25.42C181.09,228.79,181.53,226.41,182,224Z"/><path class="cls-4" d="M182,224c-.42,2.38-.86,4.76-1.26,7.15-1.45,8.59-3,17.16-5.87,25.42-1.1,3.2-2.39,6.3-4.95,8.75a10,10,0,0,1-9.09,2.73c-2-.35-4-1-6-1.57-2.62-2.39-5.33-4.7-7.85-7.18a271.5,271.5,0,0,1-26.56-31.1,5.57,5.57,0,0,1-.44-.92l3.61-3.26c1.59-1.43,3.55-2.62,4.73-4.35,5.52-8.07,10.84-16.28,16.2-24.47a8.05,8.05,0,0,0,1-2.25c.5-1.81.8-3.67,1.33-5.46,1-3.38,1.89-4.89,5.75-5.21,4.14,6.34,8.21,12.73,12.43,19a221.14,221.14,0,0,0,16,21.32A16.54,16.54,0,0,1,182,224Z"/><path class="cls-13" d="M182.59,218.82c-2.53-3.19-5.14-6.31-7.56-9.57-8-10.82-15.14-22.24-22.37-33.59a4.8,4.8,0,0,1-.62-4.3c2.84-10.47,5.56-21,8.32-31.47l4.77-18.06c.06-.23.17-.44.35-.9.54,2.22,1,4.22,1.52,6.2.71,2.74,1.58,5.45,2.16,8.22a73,73,0,0,1,1.12,7.81c.71,7.42,4.49,12.74,10.92,16.28,2.17,1.19,4.37,2.31,6.59,3.41a1.2,1.2,0,0,1,.81,1.45c-.53,4-1.12,7.92-1.46,11.9-.36,4.18-.45,8.38-.66,12.56-.18,1-.38,2.08-.52,3.12-.36,2.84-.68,5.68-1,8.52q-.68,5.49-1.37,11C183.24,213.86,182.91,216.34,182.59,218.82Z"/><path class="cls-13" d="M191.94,161c-3-1.56-6.05-3-9-4.69-4.22-2.36-7.53-5.55-8.53-10.53a30.94,30.94,0,0,1-.81-5.56c-.08-3.87-1.46-7.42-2.4-11.08-2.3-9-4.38-18-4.74-27.3-.17-4.35.14-8.66,2-12.68,3-6.61,8.37-10.18,15.26-11.66,6.47-1.38,11.21,1.62,15.18,6.3,4.69,5.53,8.64,11.48,10.41,18.64,0,.11.11.21.44.31q.1-3.15.22-6.32a3.08,3.08,0,0,1,.38.43c1.74,3.24,3.31,6.52,2.79,10.37a36.06,36.06,0,0,1-.93,4.67c-1.56,4.69-3.19,9.36-4.94,14-1.55,4.06-3.29,8-5,12.06-2.73,6.23-5.44,12.48-8.19,18.71C193.42,158.09,192.65,159.51,191.94,161Zm-11.29-36h0l.34.44.17.2.24.29h0l.34.4,0,.07.05-.07.43.52h0a4.2,4.2,0,0,0,.43,1.14,30.54,30.54,0,0,0,2.77,3.43,47.29,47.29,0,0,0,5.08,4.52c1.76,1.29,3.29,1,4.64-.6a30,30,0,0,0,2.32-3.87c.07,0,.17,0,.2,0a.28.28,0,0,0,0-.22c-.83-3.56-1.7-7.11-2.48-10.68a3.48,3.48,0,0,1,.22-2c.93-2.08,1.94-4.12,3-6.12a22.71,22.71,0,0,0,2.62-8.25c.62-5.4-.48-10.23-4-14.42-2.75-3.24-5.81-6.07-9.92-7.47-3.3-1.12-6.35-.66-8.74,2.06a57.34,57.34,0,0,0-4.2,5.49c-.91,1.33-1.57,2.82-2.35,4.23v0l-.17.21c-.06.31-.1.64-.18,1a20.82,20.82,0,0,0-.1,10.4,32.76,32.76,0,0,0,3.55,9.58,1.45,1.45,0,0,0,0,.47,40.31,40.31,0,0,0,5.49,9.1Z"/><path class="cls-14" d="M261.55,58.94c-2.42,2.79-4.9,5.52-7.23,8.36-2.09,2.54-4,5.2-6,7.83-.83,1.1-1.59,2.27-2.44,3.37a5.37,5.37,0,0,1-1.12.84,9.36,9.36,0,0,0-2.45-.68q-21.69-.06-43.39,0A18.86,18.86,0,0,0,189,73.72a21.24,21.24,0,0,0-8.86.9c-.53.15-1.05.35-1.84.61,1.88-6.66,4.13-12.93,6.51-19.16h.92l-.89,2.41h54.75c6.83,0,13.67,0,20.5,0A5.58,5.58,0,0,1,261.55,58.94Z"/><path class="cls-15" d="M248.9,191.16q6.21,9.09,12.41,18.18a2.55,2.55,0,0,1,.25.75c-1.56,1.38-3.12,2.78-4.7,4.14a18.8,18.8,0,0,1-1.56,1.08l-1.38,0-2.27-.06c-4.1-.09-8.21,0-12.3-.3a65.32,65.32,0,0,1-18.59-4.25c-.35-.13-.72-.21-1.07-.32l-.14.23,2.59,3-.12.16-6.54-2.19a2.38,2.38,0,0,0-.41-.23A56,56,0,0,1,200.74,204,26,26,0,0,1,191,191.21l43.78,0Z"/><path class="cls-16" d="M248.9,191.16l-14.16,0-43.78,0h-.28a25,25,0,0,1-.44-9.35c.5-5.15,1.11-10.28,1.68-15.42A3.84,3.84,0,0,1,192,166q18.28,0,36.56,0c1.14,0,2.29.15,3.44.23q3.47,5.07,6.94,10.15,4.68,6.87,9.34,13.75C248.53,190.45,248.7,190.81,248.9,191.16Z"/><path class="cls-17" d="M261.55,58.94a5.58,5.58,0,0,0-1.48-.45c-6.83,0-13.67,0-20.5,0H184.82l.89-2.41a133.64,133.64,0,0,1,13-14.16c1.38-1,2.76-2.08,4.16-3.09,1.24-.9,2.52-1.75,3.78-2.62l1.16-.32,0,.06c-.57.59-1.18,1.15-1.71,1.79-1.06,1.3-2.07,2.63-3.11,4l-.05.1,0-.11a5.29,5.29,0,0,0,.69-.15c2.51-.87,5-2.07,7.54-2.54a48.44,48.44,0,0,1,8.53-.43c2.1,0,4.2.25,6.3.39h4.83l0,.32-4.2,2.5a53.39,53.39,0,0,1,5.83.8c3.82,1,7.6,2.1,11.38,3.21,3.26,1,6.54,1.64,9.95.9l3-.18-4.81,2.38a13.79,13.79,0,0,0,3.28,0c2.46-.26,4.93-.49,7.38-.83,2.1-.29,4.18-.73,6.27-1.1l5.24-.43c-.94,1-1.86,1.9-2.81,2.83L262.61,58C262.27,58.32,261.91,58.62,261.55,58.94Z"/><path class="cls-18" d="M232,166.23c-1.15-.08-2.3-.23-3.44-.23q-18.28,0-36.56,0a28.13,28.13,0,0,0,.36-3.15,7.49,7.49,0,0,0-.45-1.87c.71-1.45,1.48-2.87,2.13-4.35,2.75-6.23,5.46-12.48,8.19-18.71l17.26,0,0,.46-.37.2.38.29A32.34,32.34,0,0,0,222,149.14c2.22,5.66,5.81,10.51,9.08,15.56C231.42,165.2,231.72,165.72,232,166.23Z"/><path class="cls-19" d="M198.91,78.63q21.69,0,43.39,0a9.36,9.36,0,0,1,2.45.68c-2.11,1.26-4.31,2.39-6.32,3.79a34.44,34.44,0,0,0-14.12,19.23c-.45,1.56-1.06,3.07-1.59,4.6-3.22-.28-6.44-.66-9.64.23.52-3.85-1.05-7.13-2.79-10.37a3.08,3.08,0,0,0-.38-.43,14.52,14.52,0,0,0-2.79-7.73C204.44,85.28,201.65,82,198.91,78.63Z"/><path class="cls-20" d="M277.57,359c-1-1.53-2-3-2.92-4.6-2.87-4.77-5.67-9.6-8.59-14.35q-5.76-9.36-11.65-18.62c-2.26-3.56-4.64-7-7-10.56-.19-.3-.35-.62-.53-.93,1.09-3.07,3.31-5.4,5.23-7.92.84-1.1,1.71-2.18,2.7-3.44a29.37,29.37,0,0,1,1.68,2.57c3.52,7,7.11,13.93,10.46,21,2.55,5.37,4.95,10.81,7.06,16.36a52,52,0,0,1,2.34,9.61c.6,3.36.85,6.78,1.23,10.18A4.29,4.29,0,0,1,277.57,359Z"/><path class="cls-6" d="M101.5,226.71c-1.7,1.72-3.44,3.41-5.1,5.17q-11.18,11.76-22.31,23.55c-2.61,2.75-5.24,5.47-7.86,8.21-.27-3.7-.56-7.4-.78-11.11a2.1,2.1,0,0,1,.46-1.35q12.77-15.59,25.59-31.13c1.24-1.51,2.42-3.08,3.67-4.57A9.64,9.64,0,0,1,101.5,212a2.46,2.46,0,0,1-.38.57,6.78,6.78,0,0,0-2,7.28c.52,1.9,1.39,3.7,2.08,5.55A10,10,0,0,1,101.5,226.71Z"/><path class="cls-21" d="M182.59,218.82c.32-2.48.65-5,1-7.44q.69-5.49,1.37-11c.35-2.84.67-5.68,1-8.52.14-1,.34-2.08.52-3.12.79,7.92,4.74,14.64,8.24,21.51,3.2,6.29,6.69,12.43,9.84,18.74,2.22,4.45,4.09,9.08,6.13,13.63,1,2.18,2,4.34,3,6.51a1.21,1.21,0,0,0-.16.16c-2.27-2-4.55-4-6.81-6-7.05-6.29-14.09-12.6-20.22-19.82C185.17,222,183.89,220.38,182.59,218.82Z"/><path class="cls-22" d="M152.6,182.31c-3.86.32-4.74,1.83-5.75,5.21-.53,1.79-.83,3.65-1.33,5.46a8.05,8.05,0,0,1-1,2.25c-5.36,8.19-10.68,16.4-16.2,24.47-1.18,1.73-3.14,2.92-4.73,4.35L120,227.31a2.07,2.07,0,0,1-.56-.39c-1.52-2-3-4-4.74-6.3,1.13-1,2.24-2.11,3.4-3.12a50.88,50.88,0,0,0,10.31-13.11c3.16-5.4,6.6-10.65,9.84-16a14.67,14.67,0,0,0,1.19-3.23c.9-2.93,1.66-5.91,2.68-8.8.62-1.76,1.48-3.53,3.61-4a25.18,25.18,0,0,1,2.66-.26c-1.15,1.87-.15,3.1.67,4.39C150.23,178.43,151.4,180.38,152.6,182.31Z"/><path class="cls-23" d="M215.48,211.56l6.54,2.19.12-.16-2.59-3,.14-.23c.35.11.72.19,1.07.32a65.32,65.32,0,0,0,18.59,4.25c4.09.29,8.2.21,12.3.3l2.27.06a4.39,4.39,0,0,1-1.23.8c-3.3.84-6.61,1.67-9.94,2.42-4.87,1.11-9.76,2.13-14.64,3.22-5.11,1.15-10.2,2.35-15.31,3.5-1.74.38-3.5.67-5.25,1a8,8,0,0,1-1.12-1.35c-1.68-3.11-3.31-6.24-5-9.37a4.58,4.58,0,0,1-.17-.56c1.5-.32,3-.66,4.5-1,2.9-.58,5.8-1.12,8.69-1.73C214.86,212.17,215.15,211.8,215.48,211.56Z"/><path class="cls-10" d="M207.55,226.23c1.75-.33,3.51-.62,5.25-1,5.11-1.15,10.2-2.35,15.31-3.5,4.88-1.09,9.77-2.11,14.64-3.22,3.33-.75,6.64-1.58,9.94-2.42a4.39,4.39,0,0,0,1.23-.8l1.38,0c-.64.63-1.23,1.31-1.92,1.89q-5,4.23-10,8.41a34.75,34.75,0,0,1-3.74,2.94,10.91,10.91,0,0,1-3.14,1c-6.33,1.54-12.66,3.05-19,4.57l-1.15.32a2.28,2.28,0,0,1-2.88-.92c-1.44-1.94-3.14-3.69-4.7-5.55A19.28,19.28,0,0,1,207.55,226.23Z"/><path class="cls-24" d="M269,46.9c-2.09.37-4.17.81-6.27,1.1-2.45.34-4.92.57-7.38.83a13.79,13.79,0,0,1-3.28,0l4.81-2.38-3,.18a3.26,3.26,0,0,0-.67-.75q-7.64-4.45-15.29-8.86-10.5-6-21-12.08a3.31,3.31,0,0,1-.71-.85c2.77-.94,5.45-.34,8.17.38A103.92,103.92,0,0,1,249,35.12q9.42,5.37,18.8,10.75A8.5,8.5,0,0,1,269,46.9Z"/><path class="cls-20" d="M297.59,368.53c-2.12.43-4.25.85-6.37,1.29s-4.39.93-6.58,1.41c-.11,0-.19.13-.29.2l-2.48-4.28a5.47,5.47,0,0,0-.44-.54c-.06-.58-.16-1.16-.18-1.75-.37-9.45-1.06-18.87-4.15-27.89-1.26-3.69-3-7.23-4.48-10.83a2.64,2.64,0,0,1-.29-1.21,4.37,4.37,0,0,1,.54.6c2.68,4.25,5.42,8.46,8,12.77,3.83,6.4,7.63,12.82,11.28,19.32C294.14,361.16,295.79,364.88,297.59,368.53Z"/><path class="cls-15" d="M216.2,24.12a3.31,3.31,0,0,0,.71.85q10.5,6.06,21,12.08,7.65,4.41,15.29,8.86a3.26,3.26,0,0,1,.67.75c-3.41.74-6.69.05-9.95-.9-3.78-1.11-7.56-2.25-11.38-3.21a53.39,53.39,0,0,0-5.83-.8l4.2-2.5,0-.32h-4.83c-.28-.34-.5-.81-.87-1-4.4-2.56-8.84-5.07-13.25-7.63-1.68-1-3.3-2.05-4.94-3.08A23.7,23.7,0,0,1,216.2,24.12Z"/><path class="cls-6" d="M354.94,341.42a21.22,21.22,0,0,1-1.66-1.77c-3.59-4.73-8.37-7.59-14-9.38a109.26,109.26,0,0,1-10.88-4.3c-8.32-3.67-16.59-7.46-24.89-11.19a5.4,5.4,0,0,0-.9-.23,2.4,2.4,0,0,0-1-2.79c-2.8-2.32-5.56-4.67-8.34-7a7.43,7.43,0,0,0-.75-.49l.24-.29c.32.13.64.25.94.4,9.75,4.84,19.47,9.74,29.25,14.49a78.79,78.79,0,0,0,18.91,6.61,9.08,9.08,0,0,1,5.24,3.14A59,59,0,0,1,354.94,341.42Z"/><path class="cls-7" d="M86.19,315.51c-4.29-1-8.58-1.93-12.88-2.88-2.59-.58-5.19-1.12-7.77-1.75a1.27,1.27,0,0,1-.68-1c.07-1.94.22-3.88.38-5.81.08-1.11.22-2.21.33-3.31,1.64.58,3.26,1.24,4.93,1.74,7.13,2.13,14.29,4.21,21.65,6.38Z"/><path class="cls-25" d="M294.23,223.34c1.42,1.44,2.9,2.82,4.25,4.32a5.51,5.51,0,0,0,3.18,1.91,5.27,5.27,0,0,1,4.61,4.05,9.26,9.26,0,0,1,.47,5.09c-.13.28-.27.55-.38.83-.67,1.75-1.67,2.24-3.38,1.47a13.52,13.52,0,0,1-2.74-1.68c-3.32-2.56-6.66-5.08-9.86-7.77a50.42,50.42,0,0,1-6.34-6.14c-1.34-1.59-2.1-3.65-3.08-5.53-.43-.83-.75-1.72-1.12-2.58,1.14,1.76,3.24,1.85,4.85,2.79.16.46.19,1.11.51,1.35a15,15,0,0,0,7.82,2.9A1,1,0,0,0,294.23,223.34Z"/><path class="cls-26" d="M350.07,151.64c.74-2.59,1.51-5.18,2.22-7.78q3-11.25,6-22.53c.86-3.23,1.71-6.47,2.59-9.7a8,8,0,0,1,.52-1.17c1.45,2.06,2.67,4,2.25,6.86-1.46,9.61-4,19-6.5,28.32-.95,3.58-1.52,7.25-2.27,10.88-.05.27-.14.52-.24.91Z"/><path class="cls-25" d="M310.54,233.37c-2.51.15-2.74.18-3-2.27-.22-2.11-1.29-2.85-3.1-3.11l-.59-.11a7.49,7.49,0,0,1-4.94-2.8,14.84,14.84,0,0,0-8.93-5.69,30.19,30.19,0,0,1-5.87-2,34.49,34.49,0,0,1-4.39-2.92c.75.09,1.49.21,2.24.25a77.34,77.34,0,0,1,8.22.46c4.27.69,8.49,1.72,12.72,2.67a3.8,3.8,0,0,1,1.61.85c1.77,1.54,3.32,3.41,5.27,4.65s3.28,2.62,2.41,5.13C311.63,230.09,311.09,231.73,310.54,233.37Z"/><path class="cls-27" d="M101.5,226.71a10,10,0,0,0-.31-1.34c-.69-1.85-1.56-3.65-2.08-5.55a6.78,6.78,0,0,1,2-7.28,2.46,2.46,0,0,0,.38-.57c3.14.05,6.28,0,9.41.2,2.09.12,4.15.56,6.58.91-1.68,1.64-3.16,3.07-4.63,4.53l-9.33,9.32c-.3.31-.57.65-.86,1Z"/><path class="cls-16" d="M207,27.2c1.64,1,3.26,2.11,4.94,3.08,4.41,2.56,8.85,5.07,13.25,7.63.37.21.59.68.87,1-2.1-.14-4.2-.4-6.3-.39a48.44,48.44,0,0,0-8.53.43c-2.58.47-5,1.67-7.54,2.54a5.29,5.29,0,0,1-.69.15h0c1-1.32,2.05-2.65,3.11-4,.53-.64,1.14-1.2,1.71-1.79l.1-.15-.15.09-1.16.32-6.72-3.88Z"/><path class="cls-21" d="M301.64,200.24l-3.53-4.53c-.67-.87-1.33-1.75-2-2.63l-.06-1.09,6.31-.33A7.56,7.56,0,0,0,304.6,193c1.82.33,3.7.37,5.55.54a2.32,2.32,0,0,1,1.1.25c1.64,1.24,3.24,2.54,4.86,3.82l-1.22.08c.72,1.78,2.15,2.82,3.45,3.94a33.1,33.1,0,0,0,3.22,2.19l-4.19-.64-.11.31,6.94,2.3v.24l-4.89,1.48a3,3,0,0,0-2.66-2.87c-2.89-.5-4.48-2.7-6.18-4.76-.35-.43-.72-.84-.91-1.05Z"/><path class="cls-12" d="M215.48,211.56c-.33.24-.62.61-1,.69-2.89.61-5.79,1.15-8.69,1.73-1.5.31-3,.65-4.5,1-.8-1.45-1.64-2.88-2.39-4.35-2-3.87-4-7.72-5.79-11.67-1-2.26-1.69-4.7-2.5-7.06a1.53,1.53,0,0,1,.06-.66H191A26,26,0,0,0,200.74,204a56,56,0,0,0,14.33,7.31A2.38,2.38,0,0,1,215.48,211.56Z"/><path class="cls-28" d="M332.12,152.27a2.41,2.41,0,0,1,2.47-1.37,4,4,0,0,0,.63,1c3.48,2.94,7,5.86,10.48,8.79.42.35.79.77,1.18,1.16a24.86,24.86,0,0,0-4.34,1.1c-2.12,1-4.09,2.2-6.12,3.33l-1.86-.84-.19.25,1.15,1-2,1.26c-.25-.39-.66-.75-.71-1.16-.39-3.67-.77-7.36-1-11.05a12.08,12.08,0,0,1,.45-2.45A4.46,4.46,0,0,0,332.12,152.27Zm1.55,12.95.09-.07s-.05-.06-.08-.07-.06,0-.08.06Zm.41.16.08.13s.07,0,.07-.07a.61.61,0,0,0-.07-.14Z"/><path class="cls-13" d="M279.84,217.31c.37.86.69,1.75,1.12,2.58,1,1.88,1.74,3.94,3.08,5.53a50.42,50.42,0,0,0,6.34,6.14c3.2,2.69,6.54,5.21,9.86,7.77A13.52,13.52,0,0,0,303,241c1.71.77,2.71.28,3.38-1.47.11-.28.25-.55.38-.83a20.57,20.57,0,0,1-.36,2.48c-.6,2.35-2.78,3.32-4.81,2-4-2.67-7.86-5.46-11.76-8.24-1.91-1.37-3.75-2.84-5.66-4.23a17.23,17.23,0,0,1-6-7.73c-.78-2-.83-4.28-1.2-6.43-.08-.47-.13-.94-.19-1.4,1.48-.53,1.48-.53,2.6,1.45l.22.31h0l.29.45Z"/><path class="cls-26" d="M324,203.87a10.1,10.1,0,0,0,6.39-9.92c0-4.61-.53-9.22-.84-13.82,0-.2,0-.4,0-.6-.09-7.47-.2-14.93-.2-22.4,0-.71.69-1.42,1.06-2.13.16,4.91.15,9.83.53,14.73.41,5.16,1.22,10.3,1.8,15.46a36.27,36.27,0,0,1-.18,11.9A8.37,8.37,0,0,1,324,203.87Z"/><path class="cls-13" d="M310.54,233.37c.55-1.64,1.09-3.28,1.66-4.92.87-2.51-.35-3.82-2.41-5.13s-3.5-3.11-5.27-4.65a3.8,3.8,0,0,0-1.61-.85c-4.23-.95-8.45-2-12.72-2.67a77.34,77.34,0,0,0-8.22-.46c-.75,0-1.49-.16-2.24-.25a71.62,71.62,0,0,1,7.42-1.7c1.49-.19,3.07.35,4.61.59,4,.62,8,1.24,11.94,1.91a3,3,0,0,1,1.44.71q4.07,3.72,8.05,7.52a1.69,1.69,0,0,1,.39,1.23c-.36,2.86-.78,5.7-1.2,8.67Z"/><path class="cls-13" d="M319.3,207.53l4.89-1.48a11,11,0,0,1,.52,1c.5,1.37,1,2.76,1.44,4.13-1.19,2.86-2.3,5.76-3.61,8.56-.82,1.76-1.94,3.37-2.93,5-.11-2.74-.27-5.48-.31-8.21C319.24,213.58,319.29,210.56,319.3,207.53Z"/><path class="cls-26" d="M319.61,224.82c1-1.68,2.11-3.29,2.93-5,1.31-2.8,2.42-5.7,3.61-8.56.63-1.94,1.27-3.88,1.9-5.81l4.09-2.29c-2.42,9.71-7.54,18.22-12.08,27Z"/><path class="cls-13" d="M336.42,166.25c2-1.13,4-2.38,6.12-3.33a24.86,24.86,0,0,1,4.34-1.1l1.32,1.34c-1,1.92-2,3.89-3,5.77-.81,1.4-1.79,2.7-2.69,4A19.06,19.06,0,0,0,336.42,166.25Z"/><path class="cls-18" d="M199.89,32.31l6.72,3.88c-1.26.87-2.54,1.72-3.78,2.62-1.4,1-2.78,2.06-4.16,3.09-.87-.47-1.73-1-2.62-1.41s-1.57-.65-2.36-1Z"/><path class="cls-29" d="M193.69,39.51c.79.33,1.6.61,2.36,1s1.75.94,2.62,1.41a133.64,133.64,0,0,0-13,14.16h-.92a92.53,92.53,0,0,1,7.63-14.85C192.81,40.63,193.26,40.08,193.69,39.51Z"/><path class="cls-26" d="M342.47,173c.9-1.34,1.88-2.64,2.69-4,1.08-1.88,2-3.85,3-5.77a1.21,1.21,0,0,1,.29.19c3.91,4.65,3.83,3.68.37,8.34a81,81,0,0,1-6.08,6.61C342.67,176.43,342.57,174.7,342.47,173Z"/><path class="cls-6" d="M287.26,304.46c-1.09-.36-2.21-.65-3.27-1.07q-10.53-4.27-21-8.6a3.34,3.34,0,0,1-.68-.45c1.65.43,3.33.8,5,1.29a32.29,32.29,0,0,0,9.74.94,2.18,2.18,0,0,1,1.33.31C281.32,299.38,284.28,301.93,287.26,304.46Z"/><path class="cls-13" d="M333.53,167.94l2-1.26c2.65,2.09,5.12,4.34,6.15,7.73-.72.81-1.44,1.61-2.15,2.42C338.25,173.38,335.76,170.75,333.53,167.94Z"/><path class="cls-22" d="M113.64,232.7l-2.8,2.17-4.1-6.17,2.35-2Z"/><path class="cls-26" d="M294.23,223.34a1,1,0,0,1-1.21,1,15,15,0,0,1-7.82-2.9c-.32-.24-.35-.89-.51-1.35Z"/><path class="cls-22" d="M116.88,229.82l-.77.68c-.65-.66-1.29-1.35-2-2a5.78,5.78,0,0,0-.92-.59h0L112,226.49h0l-.24-.49v0l-.72-.73h0l.06-.23,1-2C113.82,225.5,115.35,227.66,116.88,229.82Z"/><path class="cls-26" d="M335.59,180.85l-1.16-1.31,2.6-.28c.09-1.37-1.9-2.57-.16-4a6,6,0,0,1,.89,6.56l-2.11-1Z"/><path class="cls-30" d="M328.05,205.4c-.63,1.93-1.27,3.87-1.9,5.81-.48-1.37-.94-2.76-1.44-4.13a11,11,0,0,0-.52-1c0-.08,0-.16,0-.24Z"/><path class="cls-26" d="M339.52,176.83c.71-.81,1.43-1.61,2.15-2.42.63,2.58.76,5-1.73,6.81C339.8,179.77,339.66,178.3,339.52,176.83Z"/><path class="cls-9" d="M335.59,180.85l.06,0c0,.22-.16.52-.07.64.64.86,1.33,1.68,2.05,2.58l-1.82,2.15c-.24-1.64-.48-3.06-.63-4.49C335.15,181.47,335.45,181.15,335.59,180.85Z"/><path class="cls-25" d="M279.84,217.32l-.29-.45Z"/><path class="cls-6" d="M355.24,341.9l-.32-.49Z"/><path class="cls-12" d="M111.12,225.05l-.06.23-.26-.23Z"/><path class="cls-25" d="M279.55,216.88l-.22-.31Z"/><path class="cls-21" d="M213.68,249.15l.08.28-.24-.12A1.21,1.21,0,0,1,213.68,249.15Z"/><path class="cls-12" d="M247.31,288.36l0-.07s.05,0,.07,0,0,.05,0,.08Z"/><path class="cls-6" d="M292.5,303.87a.59.59,0,0,1-.14.06s-.05-.05-.08-.07a.76.76,0,0,1,.16-.06S292.48,303.84,292.5,303.87Z"/><path class="cls-6" d="M287.55,304.7l-.31-.25Z"/><path class="cls-26" d="M254.3,1.92a.17.17,0,0,1,0,.07s0,0-.08,0V1.88Z"/><path class="cls-26" d="M211.53,12.58l-.07,0,.08-.11.08.07Z"/><path class="cls-12" d="M113.23,227.92a5.78,5.78,0,0,1,.92.59c.67.64,1.31,1.33,2,2l1.71,2.58-.37.06Z"/><path class="cls-12" d="M118.49,234.48l-.45-.57.33-.29.16.4v.33A.15.15,0,0,0,118.49,234.48Z"/><path class="cls-10" d="M118.37,233.62l-.33.29a.21.21,0,0,1-.13-.17Z"/><path class="cls-10" d="M117.45,233.14l.37-.06c0,.16,0,.32,0,.49Z"/><path class="cls-10" d="M118.52,234.35V234l.22.21Z"/><path class="cls-12" d="M112,226.49l1.19,1.43Z"/><path class="cls-12" d="M111.07,225.28l.72.73Z"/><path class="cls-12" d="M111.78,226l.24.49Z"/><path class="cls-28" d="M323.49,138a20.28,20.28,0,0,1-3.39,8.48c-2.33,3.66-4.81,7.22-7.34,11-1.61-1.34-3.1-2.57-4.57-3.82l-6.38-5.39a2.57,2.57,0,0,0-.62-.31l.15-1.17c.35-2.51.66-5-.69-7.39l2.51-3.3c2.18,2,2.21,4.75,2.58,7.39.51-3,1.2-5.93-1.23-8.46.44-.79.88-1.56,1.31-2.35,1-1.92,2.19-3.79,3-5.79a7.54,7.54,0,0,0,0-3,11.27,11.27,0,0,0-.21-1.4c1.68,1.69,3.39,3.35,5,5.08C317,131,320.23,134.52,323.49,138Z"/><path class="cls-29" d="M213.08,107.19c3.2-.89,6.42-.51,9.64-.23-.52,2.76-1.14,5.51-1.55,8.29-.55,3.73-1.08,7.46-1.34,11.21s-.22,7.64-.31,11.46l-17.26,0c1.66-4,3.4-8,5-12.06,1.75-4.62,3.38-9.29,4.94-14A36.06,36.06,0,0,0,213.08,107.19Z"/><path class="cls-30" d="M302.36,191.66l-6.31.33v0l-.21-.29a7.66,7.66,0,0,1,.5-9.53c.35-.39.64-.85,1-1.28l1.69-1.12a9.68,9.68,0,0,1,6.68-1.75c5.23.62,9.73,3.72,9.62,9.58-.05,2.35-.18,4.7-.27,7a28.26,28.26,0,0,1-2.1-2.56c-1.45-2.21-3.35-3.1-5.89-2.24C305.46,190.37,303.92,191.05,302.36,191.66Z"/><path class="cls-2" d="M323.49,138c-3.26-3.49-6.49-7-9.77-10.46-1.64-1.73-3.35-3.39-5-5.08h0l-.27-.27-1.94-2,10.77-1.81c.23,0,.53,0,.68.18,3,2.82,6.23,5.4,8.53,8.87,1.87,2.83,1.9,4.89-.1,7.61A28.21,28.21,0,0,1,323.49,138Z"/><path class="cls-2" d="M304.51,118c-1.38-.58-2.8-1.06-4.13-1.75a68.53,68.53,0,0,0-17.7-6.74l-5.51-1.13c-.17,0-.33-.11-.46-.45,1.55-.13,3.1-.3,4.66-.4,3.27-.21,6.54-.39,9.8-.58,3.6-.2,6.81,1.16,10,2.55,3.8,1.66,7.56,3.4,11.33,5.12a4.11,4.11,0,0,1,.65.47Z"/><path class="cls-2" d="M300.65,139.42c1.35,2.36,1,4.88.69,7.39l-.15,1.17a3.15,3.15,0,0,1-.88-.3c-1.93-1.3-3.84-2.64-5.76-4l4.32,1.32c1.42-3.27.49-5.42-4.65-7.53-.63,1.29-.51,1.74.67,2.43.58.33,1.2.61,1.76,1,1.08.73,1,1.22-.11,1.75-.68.31-1.39.57-2.09.85l-8.67-5.86,1.54-3.94-6-2.95-.28,0,.11.26,1.26,3.32-3.25-3.48c-.27-.29-.55-.56-.82-.84l-.24-.28h0l-.24-.26h0c-.77-1-1.55-2-2.49-3.17l1,.29c4.78,2.28,9.59,4.51,14.33,6.87C294.22,135.17,297.84,136.64,300.65,139.42Z"/><path class="cls-13" d="M300.65,139.42c-2.81-2.78-6.43-4.25-9.88-6-4.74-2.36-9.55-4.59-14.33-6.87a5.15,5.15,0,0,1,1-.44c1.49-.26,3-.48,4.51-.72l1.18.44L283,126c.05,0,.09.11.15.13,4,1.76,8,3.45,12,5.27,2.81,1.29,5.72,2.44,8,4.7Z"/><path class="cls-2" d="M302.36,191.66c1.56-.61,3.1-1.29,4.69-1.83,2.54-.86,4.44,0,5.89,2.24a28.26,28.26,0,0,0,2.1,2.56l2.94,3.74,0,0-1.9-.72c-1.62-1.28-3.22-2.58-4.86-3.82a2.32,2.32,0,0,0-1.1-.25c-1.85-.17-3.73-.21-5.55-.54A7.56,7.56,0,0,1,302.36,191.66Z"/><path class="cls-10" d="M303.16,136.12c-2.25-2.26-5.16-3.41-8-4.7-4-1.82-8-3.51-12-5.27-.06,0-.1-.08-.15-.13l.15-.15c1.89.58,3.83,1.07,5.68,1.76,3.7,1.37,7.4,2.75,11,4.36a32.31,32.31,0,0,1,4.67,3.06c2.43,2.53,1.74,5.5,1.23,8.46C305.37,140.87,305.34,138.12,303.16,136.12Z"/><path class="cls-21" d="M276.92,135.26c1.16,1.2,2.33,2.39,3.48,3.6a54.5,54.5,0,0,0,13.12,9.87c.27.14.52.32.77.48l-.12.37c-1.95-.54-3.93-1-5.83-1.66-4.69-1.67-7.43-5.42-9.83-9.49-.6-1-1.07-2.1-1.6-3.16Z"/><path class="cls-30" d="M304.51,118l8.63-2.91c1.08.74,2.18,1.45,3.23,2.24a5.15,5.15,0,0,1,.87,1.08l-10.77,1.81c-.37-.42-.74-.86-1.12-1.28S304.79,118.33,304.51,118Z"/><path class="cls-30" d="M292.52,188.07l-10.35.47a2.6,2.6,0,0,1-1.25-.19c1-.49,2-1,3-1.45q4.28-1.83,8.57-3.59a5.69,5.69,0,0,1,1.38-.23A7.33,7.33,0,0,0,292.52,188.07Z"/><path class="cls-21" d="M282,125.43c-1.51.24-3,.46-4.51.72a5.15,5.15,0,0,0-1,.44l-1-.29c.94,1.21,1.72,2.19,2.49,3.17-1-.67-2-1.33-3-2s-2-1.5-2.92-2.25a23.23,23.23,0,0,1-2.73-2.4c1.36.26,2.72.5,4.07.78,1.63.34,3.25.75,4.88,1,.36.06.83-.4,1.15-.3A26.11,26.11,0,0,1,282,125.43Zm-6.65.83.08,0v-.06Z"/><path class="cls-26" d="M294.45,143.52c.7-.28,1.41-.54,2.09-.85,1.15-.53,1.19-1,.11-1.75-.56-.37-1.18-.65-1.76-1-1.18-.69-1.3-1.14-.67-2.43,5.14,2.11,6.07,4.26,4.65,7.53l-4.32-1.32A1.24,1.24,0,0,0,294.45,143.52Z"/><path class="cls-10" d="M292.52,188.07a7.33,7.33,0,0,1,1.32-5l3.48-2.21c-.33.43-.62.89-1,1.28a7.66,7.66,0,0,0-.5,9.53l.21.29v0l.06,1.09a14.66,14.66,0,0,1-2.3-2.14A14.93,14.93,0,0,1,292.52,188.07Z"/><path class="cls-26" d="M282.45,134.31,281.19,131l.17-.22,6,2.95-1.54,3.94-3.09-2.87-.26-.51Z"/><path class="cls-29" d="M219.56,138.87l-.38-.29.37-.2C219.55,138.54,219.56,138.71,219.56,138.87Z"/><path class="cls-2" d="M282.43,134.28l.26.51Z"/><path class="cls-28" d="M308.41,122.2l.27.27Z"/><path class="cls-21" d="M276.91,135.27l-.1-.11.11.1Z"/><path class="cls-2" d="M318,198.37l.12.16H318l0-.18Z"/><path class="cls-21" d="M278.14,129.71l.24.28Z"/><path class="cls-21" d="M277.91,129.46l.24.26Z"/><path class="cls-21" d="M197.43,131.43a30,30,0,0,1-2.32,3.87c-1.35,1.65-2.88,1.89-4.64.6a47.29,47.29,0,0,1-5.08-4.52,30.54,30.54,0,0,1-2.77-3.43,4.2,4.2,0,0,1-.43-1.14l2.17,2.14a2,2,0,0,0-.31-1.2c-1.18-2.17-2.47-4.29-3.53-6.52-2.54-5.33-2.54-10.55.92-15.55,2.7-3.92,6.22-7.06,9.74-10.19,1.18-1,2.4-2,3.91-3.33a47.2,47.2,0,0,1,2,5.49,18.74,18.74,0,0,1-1,11.39c-1.33,3.28-3.15,6.36-4.79,9.51a1.61,1.61,0,0,0,0,1.75C193.42,124,195.42,127.72,197.43,131.43Zm-12.73-2.38h-.16l.06.34h.07Z"/><path class="cls-2" d="M197.43,131.43c-2-3.71-4-7.43-6.06-11.13a1.61,1.61,0,0,1,0-1.75c1.64-3.15,3.46-6.23,4.79-9.51a18.74,18.74,0,0,0,1-11.39,47.2,47.2,0,0,0-2-5.49c-1.51,1.28-2.73,2.28-3.91,3.33-3.52,3.13-7,6.27-9.74,10.19-3.46,5-3.46,10.22-.92,15.55,1.06,2.23,2.35,4.35,3.53,6.52a2,2,0,0,1,.31,1.2l-2.17-2.14h0l-.43-.52-.05.07,0-.07-.34-.4h0l-.24-.29-.17-.2-.34-.44h0l-.21-.27a40.31,40.31,0,0,1-5.49-9.1,1.45,1.45,0,0,1,0-.47,1.48,1.48,0,0,0,0-.47,12.06,12.06,0,0,1,1.73-9.06c2.33-3.94,5.62-7,8.91-10.13,2.16-2,4.42-3.91,6.72-5.92-.42-.4-.78-.76-1.17-1.09-3.31-2.69-8-4.23-12.39-.7-2.41,2-4.61,4.17-6.91,6.26.78-1.41,1.44-2.9,2.35-4.23a57.34,57.34,0,0,1,4.2-5.49c2.39-2.72,5.44-3.18,8.74-2.06,4.11,1.4,7.17,4.23,9.92,7.47,3.55,4.19,4.65,9,4,14.42a22.71,22.71,0,0,1-2.62,8.25c-1.07,2-2.08,4-3,6.12a3.48,3.48,0,0,0-.22,2c.78,3.57,1.65,7.12,2.48,10.68a.28.28,0,0,1,0,.22S197.5,131.43,197.43,131.43Z"/><path class="cls-21" d="M171.8,94c2.3-2.09,4.5-4.3,6.91-6.26,4.36-3.53,9.08-2,12.39.7.39.33.75.69,1.17,1.09-2.3,2-4.56,3.9-6.72,5.92-3.29,3.09-6.58,6.19-8.91,10.13a12.06,12.06,0,0,0-1.73,9.06,1.48,1.48,0,0,1,0,.47,32.76,32.76,0,0,1-3.55-9.58,20.82,20.82,0,0,1,.1-10.4c.08-.31.12-.64.18-1l.17-.21Z"/><path class="cls-21" d="M181.75,126.29l.43.52Z"/><path class="cls-21" d="M181.4,125.89l.34.4Z"/><path class="cls-21" d="M180.66,125l.34.44Z"/><path class="cls-2" d="M171.81,94l-.17.21Z"/><path class="cls-21" d="M181.17,125.61l.24.29Z"/><path class="cls-21" d="M180.44,124.69l.21.27Z"/><path class="cls-16" d="M203,41.66l0,.11.05-.1Z"/><path class="cls-17" d="M207.77,35.87l.15-.09-.1.15Z"/><path class="cls-2" d="M333.67,165.22l-.07-.08s0-.06.08-.06.05,0,.08.07Z"/><path class="cls-2" d="M334.08,165.38l.08-.08a.61.61,0,0,1,.07.14s-.05.05-.07.07Z"/><path class="cls-21" d="M296.06,192l-.21-.29Z"/><path class="cls-26" d="M281.19,131l-.11-.26.28,0Z"/><polygon class="cls-2" points="275.33 126.25 275.42 126.24 275.4 126.3 275.33 126.25"/><path class="cls-2" d="M184.7,129.05l0,.36h-.07l-.06-.34Z"/></g></g></svg>